<svg preserveAspectRatio="xMidYMid meet" data-bbox="41 20 117.706 159.25" viewBox="41 20 117.706 159.25" height="200" width="200" xmlns="http://www.w3.org/2000/svg" data-type="color" role="img" aria-labelledby="svgcid-8w8jfg-od0u7n"><defs><style>#comp-ihkej3mz svg [data-color="2"] {fill: #E21C21;}</style></defs><title id="svgcid-8w8jfg-od0u7n"></title>
    <g>
        <path fill="#FFFFFF" d="M99 170V35L50.013 136.057 99 170z" data-color="1"></path>
        <path d="M105.464 26.49l-2.085-4.26c-.669-1.369-2.032-2.23-3.526-2.23h-.01c-1.489 0-2.852.866-3.516 2.245L41.414 135.634c-.883 1.821-.315 4.031 1.334 5.16l54.913 37.769a3.851 3.851 0 0 0 2.192.687c.771 0 1.532-.229 2.192-.687l54.913-37.769c1.649-1.124 2.216-3.339 1.334-5.156L105.464 26.49zM99 170l-48.987-33.943L99 35v135z" fill="#FE6161" data-color="2"></path>
    </g>
</svg>